#!OML:ASF H:\Martial Arts Walks\Project 1\Capture day 1\Session 1\male.ASF
:FULLY-SPECIFIED
:DEGREES
1111
root -2.27077 13.8936 25.0872 6.20917 13.2891 0.371626
lowerback 9.7967 -3.57549 -10.687
upperback -1.33174 -5.90937 2.58023
thorax -5.57562 -2.52979 9.59697
lowerneck 10.1102 -17.6615 -17.7868
upperneck 4.95919 -26.1776 17.2651
head 4.50712 -13.4283 6.73229
rclavicle 5.96727e-014 -3.97569e-014
rhumerus -36.3239 13.0051 -76.3691
rradius 39.4548
rwrist 2.0718
rhand -12.2726 -38.3975
rfingers 7.12502
rthumb 13.7943 -67.9201
lclavicle 5.96727e-014 -3.97569e-014
lhumerus -28.0542 -5.79214 87.2125
lradius 39.9202
lwrist -8.56241
lhand -25.5675 21.7338
lfingers 7.12502
lthumb 0.963493 51.7113
rfemur -62.3903 -12.2544 14.8244
rtibia 71.8986
rfoot -12.9383 14.3061
rtoes 0.220466
lfemur 14.1821 1.99712 -13.3356
ltibia 33.6801
lfoot -33.2379 37.4873
ltoes -21.2816
1112
root -2.26979 13.8933 25.0859 6.21086 13.2854 0.380109
lowerback 9.79651 -3.56707 -10.6941
upperback -1.32145 -5.89861 2.57723
thorax -5.56661 -2.52537 9.59598
lowerneck 10.0562 -17.6565 -17.8172
upperneck 5.01638 -26.1726 17.254
head 4.53445 -13.4229 6.725
rclavicle 9.81872e-014 -4.67144e-015
rhumerus -36.2459 13.0055 -76.3193
rradius 39.4457
rwrist 2.20251
rhand -12.1373 -38.2989
rfingers 7.12502
rthumb 13.9247 -67.8127
lclavicle 9.81872e-014 -4.67144e-015
lhumerus -28.0159 -5.85377 87.2196
lradius 39.9236
lwrist -8.47277
lhand -25.6736 21.7402
lfingers 7.12502
lthumb 0.861011 51.7182
rfemur -62.394 -12.261 14.8159
rtibia 71.8911
rfoot -12.9523 14.2854
rtoes -0.0274893
lfemur 14.1798 2.00991 -13.3477
ltibia 33.6871
lfoot -33.2389 37.4891
ltoes -21.2892
1113
root -2.26842 13.8932 25.087 6.21178 13.2789 0.370854
lowerback 9.75226 -3.57286 -10.6889
upperback -1.3031 -5.90001 2.57537
thorax -5.52196 -2.53046 9.58523
lowerneck 10.1487 -17.6488 -17.7884
upperneck 4.86893 -26.1578 17.3063
head 4.47618 -13.4217 6.75459
rclavicle 7.66563e-014 2.51463e-014
rhumerus -36.2202 13.0157 -76.3058
rradius 39.5032
rwrist 2.16336
rhand -12.4227 -38.2136
rfingers 7.12502
rthumb 13.6496 -67.7461
lclavicle 7.66563e-014 2.51463e-014
lhumerus -28.0175 -5.81482 87.1955
lradius 39.9849
lwrist -8.45143
lhand -25.5143 21.8901
lfingers 7.12502
lthumb 1.01482 51.8675
rfemur -62.3877 -12.2604 14.8203
rtibia 71.8799
rfoot -12.9463 14.3102
rtoes 0.0885564
lfemur 14.1776 2.01001 -13.3491
ltibia 33.6947
lfoot -33.2323 37.5085
ltoes -21.3178
1114
root -2.26861 13.8943 25.0855 6.20207 13.2747 0.304177
lowerback 9.75546 -3.5546 -10.6282
upperback -1.30112 -5.86793 2.58583
thorax -5.53372 -2.51563 9.5593
lowerneck 9.96386 -17.7012 -17.7637
upperneck 5.09577 -26.2149 17.1473
head 4.55849 -13.437 6.66982
rclavicle 1.13059e-014 -1.09332e-014
rhumerus -36.1866 12.9635 -76.2534
rradius 39.5539
rwrist 2.27862
rhand -12.1364 -38.4709
rfingers 7.12502
rthumb 13.9255 -67.9846
lclavicle 1.13059e-014 -1.09332e-014
lhumerus -28.0205 -5.88359 87.2067
lradius 40.0268
lwrist -8.40729
lhand -25.5604 21.8438
lfingers 7.12502
lthumb 0.970353 51.8213
rfemur -62.3864 -12.2346 14.8983
rtibia 71.8594
rfoot -12.9352 14.2872
rtoes 0.100354
lfemur 14.1664 2.00641 -13.2793
ltibia 33.7096
lfoot -33.3333 37.4428
ltoes -21.2409
1115
root -2.26849 13.8944 25.0845 6.20932 13.2497 0.311367
lowerback 9.74559 -3.54716 -10.6481
upperback -1.29347 -5.85948 2.57615
thorax -5.52106 -2.51218 9.55774
lowerneck 10.1018 -17.643 -17.787
upperneck 4.89703 -26.1465 17.301
head 4.48909 -13.4135 6.74853
rclavicle -1.80149e-014 -2.6339e-014
rhumerus -36.1459 12.9895 -76.2353
rradius 39.597
rwrist 2.32851
rhand -12.3159 -38.4531
rfingers 7.12502
rthumb 13.7526 -67.9786
lclavicle -1.80149e-014 -2.6339e-014
lhumerus -28.0096 -5.91403 87.1939
lradius 40.0595
lwrist -8.31592
lhand -25.5904 21.9132
lfingers 7.12502
lthumb 0.94139 51.8909
rfemur -62.4066 -12.2142 14.8982
rtibia 71.8509
rfoot -12.9211 14.2843
rtoes 0.0603136
lfemur 14.1527 2.04692 -13.2826
ltibia 33.7156
lfoot -33.2928 37.4523
ltoes -21.3064
1116
root -2.26558 13.8928 25.084 6.2294 13.2367 0.362983
lowerback 9.66927 -3.53022 -10.6919
upperback -1.27947 -5.83432 2.55384
thorax -5.46699 -2.50329 9.54707
lowerneck 9.93873 -17.6407 -17.6925
upperneck 5.06622 -26.1129 17.1012
head 4.51966 -13.3851 6.6635
rclavicle 1.85864e-014 9.54166e-015
rhumerus -36.1419 13.0256 -76.2257
rradius 39.5562
rwrist 2.28819
rhand -12.4414 -38.2278
rfingers 7.12502
rthumb 13.6316 -67.7615
lclavicle 1.85864e-014 9.54166e-015
lhumerus -28.0307 -5.9678 87.2193
lradius 40.1171
lwrist -8.25721
lhand -25.5613 22.0917
lfingers 7.12502
lthumb 0.969451 52.0692
rfemur -62.4296 -12.2463 14.8377
rtibia 71.855
rfoot -12.8684 14.3455
rtoes 0.263786
lfemur 14.1492 2.07147 -13.3419
ltibia 33.714
lfoot -33.2482 37.4661
ltoes -21.3566
1117
root -2.26661 13.895 25.0846 6.18588 13.2424 0.311256
lowerback 9.72261 -3.5461 -10.6397
upperback -1.26206 -5.85424 2.55155
thorax -5.47865 -2.51467 9.52092
lowerneck 10.0003 -17.6404 -17.7498
upperneck 4.98542 -26.1308 17.2392
head 4.51547 -13.3991 6.71538
rclavicle -1.9953e-014 -4.37326e-015
rhumerus -36.0316 12.9147 -76.1529
rradius 39.6568
rwrist 2.4686
rhand -12.2715 -38.3768
rfingers 7.12502
rthumb 13.7954 -67.8994
lclavicle -1.9953e-014 -4.37326e-015
lhumerus -28.0058 -5.94369 87.1682
lradius 40.141
lwrist -8.18686
lhand -25.5671 21.96
lfingers 7.12502
lthumb 0.963823 51.9375
rfemur -62.3832 -12.228 14.8973
rtibia 71.8458
rfoot -12.8965 14.2893
rtoes 0.0491672
lfemur 14.1838 2.04808 -13.2875
ltibia 33.7189
lfoot -33.2439 37.487
ltoes -21.3284
1118
root -2.2667 13.8951 25.0841 6.1683 13.2267 0.345622
lowerback 9.72902 -3.52258 -10.6674
upperback -1.25074 -5.82802 2.52033
thorax -5.47704 -2.50169 9.50001
lowerneck 10.0783 -17.6337 -17.6799
upperneck 4.87975 -26.1123 17.2482
head 4.46008 -13.3943 6.726
rclavicle -1.68967e-015 2.5842e-015
rhumerus -36.0228 12.7868 -76.0969
rradius 39.7121
rwrist 2.55703
rhand -12.297 -38.2901
rfingers 7.12502
rthumb 13.7708 -67.8143
lclavicle -1.68967e-015 2.5842e-015
lhumerus -28.0068 -6.02081 87.1692
lradius 40.1774
lwrist -8.12732
lhand -25.5665 22.0046
lfingers 7.12502
lthumb 0.964433 51.9822
rfemur -62.3652 -12.2191 14.8593
rtibia 71.8466
rfoot -12.8692 14.2878
rtoes 0.12654
lfemur 14.217 2.06103 -13.3189
ltibia 33.7076
lfoot -33.269 37.4296
ltoes -21.3612
1119
root -2.26712 13.8972 25.0812 6.17359 13.2012 0.287888
lowerback 9.73089 -3.52395 -10.6359
upperback -1.24678 -5.82567 2.52671
thorax -5.47656 -2.50168 9.4887
lowerneck 10.0708 -17.6266 -17.7232
upperneck 4.89466 -26.1142 17.308
head 4.48016 -13.3956 6.74573
rclavicle -5.3647e-014 -2.98177e-015
rhumerus -35.9767 12.7861 -76.0795
rradius 39.7901
rwrist 2.56589
rhand -12.2093 -38.4754
rfingers 7.12502
rthumb 13.8553 -67.9939
lclavicle -5.3647e-014 -2.98177e-015
lhumerus -27.9961 -6.01541 87.1358
lradius 40.2078
lwrist -8.0626
lhand -25.516 21.9043
lfingers 7.12502
lthumb 1.01323 51.8816
rfemur -62.3885 -12.1695 14.9316
rtibia 71.8239
rfoot -12.8483 14.2623
rtoes 0.0663725
lfemur 14.1786 2.10162 -13.2459
ltibia 33.7189
lfoot -33.2706 37.3716
ltoes -21.3702
1120
root -2.26604 13.8979 25.0825 6.16168 13.1869 0.326795
lowerback 9.70817 -3.50793 -10.6565
upperback -1.23527 -5.80536 2.4963
thorax -5.45736 -2.49323 9.46217
lowerneck 10.0853 -17.6107 -17.7399
upperneck 4.89595 -26.0984 17.3288
head 4.48058 -13.3889 6.7573
rclavicle 2.86498e-014 0
rhumerus -35.9376 12.7221 -76.0177
rradius 39.823
rwrist 2.62425
rhand -12.1937 -38.4515
rfingers 7.12502
rthumb 13.8703 -67.969
lclavicle 2.86498e-014 0
lhumerus -27.9853 -6.07472 87.1472
lradius 40.2195
lwrist -8.02255
lhand -25.5458 21.9527
lfingers 7.12502
lthumb 0.984463 51.9302
rfemur -62.3664 -12.1832 14.8907
rtibia 71.8213
rfoot -12.8375 14.2808
rtoes 0.090505
lfemur 14.2034 2.1372 -13.2747
ltibia 33.7378
lfoot -33.2809 37.3463
ltoes -21.4042
